<?xml version="1.0" encoding="UTF-8" standalone="no"?>
<!-- Created with Inkscape (http://www.inkscape.org/) -->

<svg
   xmlns:dc="http://purl.org/dc/elements/1.1/"
   xmlns:cc="http://creativecommons.org/ns#"
   xmlns:rdf="http://www.w3.org/1999/02/22-rdf-syntax-ns#"
   xmlns:svg="http://www.w3.org/2000/svg"
   xmlns="http://www.w3.org/2000/svg"
   xmlns:sodipodi="http://sodipodi.sourceforge.net/DTD/sodipodi-0.dtd"
   xmlns:inkscape="http://www.inkscape.org/namespaces/inkscape"
   width="532.65625"
   height="128"
   viewBox="0 0 140.93196 33.866668"
   version="1.1"
   id="svg8"
   sodipodi:docname="full_logo.svg"
   inkscape:version="0.92.4 5da689c313, 2019-01-14">
  <defs
     id="defs2" />
  <sodipodi:namedview
     id="base"
     pagecolor="#ffffff"
     bordercolor="#666666"
     borderopacity="1.0"
     inkscape:pageopacity="0.0"
     inkscape:pageshadow="2"
     inkscape:zoom="1"
     inkscape:cx="-14.171873"
     inkscape:cy="-258.99999"
     inkscape:document-units="px"
     inkscape:current-layer="layer1"
     showgrid="false"
     units="px"
     inkscape:window-width="2477"
     inkscape:window-height="1369"
     inkscape:window-x="83"
     inkscape:window-y="34"
     inkscape:window-maximized="1"
     fit-margin-top="0"
     fit-margin-left="0"
     fit-margin-right="0"
     fit-margin-bottom="0" />
  <metadata
     id="metadata5">
    <rdf:RDF>
      <cc:Work
         rdf:about="">
        <dc:format>image/svg+xml</dc:format>
        <dc:type
           rdf:resource="http://purl.org/dc/dcmitype/StillImage" />
        <dc:title></dc:title>
      </cc:Work>
    </rdf:RDF>
  </metadata>
  <g
     inkscape:label="Layer 1"
     inkscape:groupmode="layer"
     id="layer1"
     transform="translate(-84.050684,-62.314569)">
    <g
       transform="translate(-334.2327,111.04829)"
       id="g986">
      <g
         transform="matrix(0.69866706,0,0,0.69866706,180.2761,37.205019)"
         id="g919">
        <rect
           ry="5.8208337"
           rx="5.8208337"
           y="-123.00385"
           x="340.65909"
           height="48.473255"
           width="48.473255"
           id="rect4652-7-5-7"
           style="opacity:1;fill:#2ec27e;fill-opacity:1;stroke:none;stroke-width:0.24236627;stroke-linecap:round;stroke-linejoin:round;stroke-miterlimit:4;stroke-dasharray:none;stroke-dashoffset:0;stroke-opacity:1" />
        <path
           sodipodi:nodetypes="ccscscccscccccscscccccscscc"
           inkscape:connector-curvature="0"
           id="path4518-3-3-0"
           style="font-style:normal;font-variant:normal;font-weight:900;font-stretch:normal;font-size:31.76362038px;line-height:1.25;font-family:Roboto;-inkscape-font-specification:'Roboto Heavy';font-variant-ligatures:normal;font-variant-caps:normal;font-variant-numeric:normal;font-feature-settings:normal;text-align:start;letter-spacing:0px;word-spacing:0px;writing-mode:lr-tb;text-anchor:start;fill:#311b92;fill-opacity:1;stroke:none;stroke-width:1.06534946"
           d="m 356.73916,-83.61934 v -30.29576 h 10.71589 c 3.89795,0 6.85955,0.71439 8.88482,2.14318 2.03914,1.42878 3.05871,3.5026 3.05871,6.22145 0,1.5675 -0.36067,2.90611 -1.08199,4.01585 -0.72133,1.10973 -1.78252,1.928173 -3.18356,2.455298 1.58137,0.416146 2.79515,1.192954 3.64132,2.330438 0.84618,1.137469 1.26926,2.524636 1.26926,4.161495 0,2.968543 -0.94327,5.201892 -2.82982,6.700034 -1.87268,1.484269 -4.65396,2.240273 -8.34382,2.268015 z m -6.99134,-12.879862 v 7.261839 h 18.91407 c 1.31781,0 2.33045,-0.298254 3.0379,-0.894736 0.70746,-0.610355 1.06118,-1.463462 1.06118,-2.559316 0,-2.524647 -1.25538,-3.793914 -3.76616,-3.807787 z m 0,-4.785728 h 17.93612 c 1.59524,-0.0138 2.73272,-0.30517 3.41243,-0.87391 0.67972,-0.56874 1.01957,-1.40798 1.01957,-2.51772 0,-1.27619 -0.3676,-2.19172 -1.1028,-2.74659 -0.7352,-0.56874 -1.92123,-0.85311 -3.55809,-0.85311 h -17.70723 z" />
      </g>
      <text
         xml:space="preserve"
         style="font-style:normal;font-weight:normal;font-size:18.61230278px;line-height:1.25;font-family:sans-serif;letter-spacing:0px;word-spacing:0px;fill:#000114;fill-opacity:1;stroke:none;stroke-width:0.46530756"
         x="457.45206"
         y="-25.01079"
         id="text3943-6-6"><tspan
           sodipodi:role="line"
           id="tspan3941-7-0"
           x="457.45206"
           y="-25.01079"
           style="font-style:normal;font-variant:normal;font-weight:bold;font-stretch:normal;font-size:18.34444427px;font-family:'Roboto Condensed';-inkscape-font-specification:'Roboto Condensed, Bold';font-variant-ligatures:normal;font-variant-caps:normal;font-variant-numeric:normal;font-feature-settings:normal;text-align:start;writing-mode:lr-tb;text-anchor:start;fill:#000114;fill-opacity:1;stroke-width:0.46530756">Biodose Tools</tspan></text>
    </g>
  </g>
</svg>
